<svg width="512" height="512" viewBox="0 0 512 512" fill="none" xmlns="http://www.w3.org/2000/svg">
<rect width="512" height="512" rx="80" fill="white"/>
<g clip-path="url(#clip0_640_2)">
<g filter="url(#filter0_d_640_2)">
<path d="M340.375 168.531C340.375 172.703 339.138 176.781 336.82 180.25C334.502 183.719 331.208 186.423 327.353 188.019C323.499 189.616 319.258 190.034 315.166 189.22C311.074 188.406 307.316 186.397 304.366 183.447C301.416 180.497 299.407 176.738 298.593 172.646C297.779 168.555 298.197 164.313 299.793 160.459C301.39 156.605 304.093 153.31 307.562 150.992C311.031 148.675 315.109 147.438 319.281 147.438C324.876 147.438 330.241 149.66 334.197 153.616C338.153 157.572 340.375 162.937 340.375 168.531ZM452.875 189.625C452.877 191.941 452.306 194.221 451.214 196.263C450.123 198.306 448.544 200.047 446.617 201.332L410.688 225.273V259.938C410.636 308.407 391.359 354.876 357.086 389.149C322.814 423.422 276.344 442.699 227.875 442.75H73.1875C67.8888 442.75 62.6978 441.253 58.2126 438.432C53.7274 435.611 50.1304 431.58 47.836 426.803C45.5416 422.027 44.6431 416.7 45.244 411.435C45.8449 406.171 47.9207 401.183 51.2324 397.047L51.4082 396.836L199.75 218.857V184.158C199.75 125.412 246.842 77.4063 304.709 77.125H305.219C327.623 77.1183 349.448 84.2466 367.53 97.4766C385.611 110.707 399.01 129.351 405.783 150.707L446.617 177.918C448.544 179.203 450.123 180.944 451.214 182.987C452.306 185.029 452.877 187.309 452.875 189.625ZM413.465 189.625L385.902 171.238C383.027 169.326 380.956 166.423 380.084 163.082C375.765 146.516 366.072 131.851 352.524 121.386C338.976 110.92 322.338 105.245 305.219 105.25H304.832C262.398 105.461 227.875 140.846 227.875 184.158V223.938C227.881 227.231 226.73 230.423 224.623 232.955L73.1875 414.625H120.473L245.172 265C246.34 263.54 247.788 262.328 249.431 261.435C251.074 260.541 252.878 259.984 254.739 259.797C256.599 259.609 258.478 259.794 260.266 260.342C262.054 260.889 263.715 261.787 265.152 262.984C266.588 264.181 267.772 265.653 268.633 267.313C269.494 268.973 270.015 270.788 270.167 272.651C270.318 274.515 270.096 276.39 269.513 278.167C268.931 279.944 268 281.587 266.775 283L157.123 414.625H227.875C268.886 414.578 308.205 398.266 337.204 369.267C366.204 340.267 382.516 300.949 382.563 259.938V217.75C382.561 215.434 383.131 213.154 384.223 211.112C385.315 209.069 386.894 207.328 388.82 206.043L413.465 189.625Z" fill="black"/>
<path d="M340.375 168.531C340.375 172.703 339.138 176.781 336.82 180.25C334.502 183.719 331.208 186.423 327.353 188.019C323.499 189.616 319.258 190.034 315.166 189.22C311.074 188.406 307.316 186.397 304.366 183.447C301.416 180.497 299.407 176.738 298.593 172.646C297.779 168.555 298.197 164.313 299.793 160.459C301.39 156.605 304.093 153.31 307.562 150.992C311.031 148.675 315.109 147.438 319.281 147.438C324.876 147.438 330.241 149.66 334.197 153.616C338.153 157.572 340.375 162.937 340.375 168.531ZM452.875 189.625C452.877 191.941 452.306 194.221 451.214 196.263C450.123 198.306 448.544 200.047 446.617 201.332L410.688 225.273V259.938C410.636 308.407 391.359 354.876 357.086 389.149C322.814 423.422 276.344 442.699 227.875 442.75H73.1875C67.8888 442.75 62.6978 441.253 58.2126 438.432C53.7274 435.611 50.1304 431.58 47.836 426.803C45.5416 422.027 44.6431 416.7 45.244 411.435C45.8449 406.171 47.9207 401.183 51.2324 397.047L51.4082 396.836L199.75 218.857V184.158C199.75 125.412 246.842 77.4063 304.709 77.125H305.219C327.623 77.1183 349.448 84.2466 367.53 97.4766C385.611 110.707 399.01 129.351 405.783 150.707L446.617 177.918C448.544 179.203 450.123 180.944 451.214 182.987C452.306 185.029 452.877 187.309 452.875 189.625ZM413.465 189.625L385.902 171.238C383.027 169.326 380.956 166.423 380.084 163.082C375.765 146.516 366.072 131.851 352.524 121.386C338.976 110.92 322.338 105.245 305.219 105.25H304.832C262.398 105.461 227.875 140.846 227.875 184.158V223.938C227.881 227.231 226.73 230.423 224.623 232.955L73.1875 414.625H120.473L245.172 265C246.34 263.54 247.788 262.328 249.431 261.435C251.074 260.541 252.878 259.984 254.739 259.797C256.599 259.609 258.478 259.794 260.266 260.342C262.054 260.889 263.715 261.787 265.152 262.984C266.588 264.181 267.772 265.653 268.633 267.313C269.494 268.973 270.015 270.788 270.167 272.651C270.318 274.515 270.096 276.39 269.513 278.167C268.931 279.944 268 281.587 266.775 283L157.123 414.625H227.875C268.886 414.578 308.205 398.266 337.204 369.267C366.204 340.267 382.516 300.949 382.563 259.938V217.75C382.561 215.434 383.131 213.154 384.223 211.112C385.315 209.069 386.894 207.328 388.82 206.043L413.465 189.625Z" fill="#0085FF"/>
<path d="M340.375 168.531C340.375 172.703 339.138 176.781 336.82 180.25C334.502 183.719 331.208 186.423 327.353 188.019C323.499 189.616 319.258 190.034 315.166 189.22C311.074 188.406 307.316 186.397 304.366 183.447C301.416 180.497 299.407 176.738 298.593 172.646C297.779 168.555 298.197 164.313 299.793 160.459C301.39 156.605 304.093 153.31 307.562 150.992C311.031 148.675 315.109 147.438 319.281 147.438C324.876 147.438 330.241 149.66 334.197 153.616C338.153 157.572 340.375 162.937 340.375 168.531ZM452.875 189.625C452.877 191.941 452.306 194.221 451.214 196.263C450.123 198.306 448.544 200.047 446.617 201.332L410.688 225.273V259.938C410.636 308.407 391.359 354.876 357.086 389.149C322.814 423.422 276.344 442.699 227.875 442.75H73.1875C67.8888 442.75 62.6978 441.253 58.2126 438.432C53.7274 435.611 50.1304 431.58 47.836 426.803C45.5416 422.027 44.6431 416.7 45.244 411.435C45.8449 406.171 47.9207 401.183 51.2324 397.047L51.4082 396.836L199.75 218.857V184.158C199.75 125.412 246.842 77.4063 304.709 77.125H305.219C327.623 77.1183 349.448 84.2466 367.53 97.4766C385.611 110.707 399.01 129.351 405.783 150.707L446.617 177.918C448.544 179.203 450.123 180.944 451.214 182.987C452.306 185.029 452.877 187.309 452.875 189.625ZM413.465 189.625L385.902 171.238C383.027 169.326 380.956 166.423 380.084 163.082C375.765 146.516 366.072 131.851 352.524 121.386C338.976 110.92 322.338 105.245 305.219 105.25H304.832C262.398 105.461 227.875 140.846 227.875 184.158V223.938C227.881 227.231 226.73 230.423 224.623 232.955L73.1875 414.625H120.473L245.172 265C246.34 263.54 247.788 262.328 249.431 261.435C251.074 260.541 252.878 259.984 254.739 259.797C256.599 259.609 258.478 259.794 260.266 260.342C262.054 260.889 263.715 261.787 265.152 262.984C266.588 264.181 267.772 265.653 268.633 267.313C269.494 268.973 270.015 270.788 270.167 272.651C270.318 274.515 270.096 276.39 269.513 278.167C268.931 279.944 268 281.587 266.775 283L157.123 414.625H227.875C268.886 414.578 308.205 398.266 337.204 369.267C366.204 340.267 382.516 300.949 382.563 259.938V217.75C382.561 215.434 383.131 213.154 384.223 211.112C385.315 209.069 386.894 207.328 388.82 206.043L413.465 189.625Z" stroke="#33FF00"/>
</g>
</g>
<defs>
<filter id="filter0_d_640_2" x="28.5625" y="76.625" width="448.812" height="406.625" filterUnits="userSpaceOnUse" color-interpolation-filters="sRGB">
<feFlood flood-opacity="0" result="BackgroundImageFix"/>
<feColorMatrix in="SourceAlpha" type="matrix" values="0 0 0 0 0 0 0 0 0 0 0 0 0 0 0 0 0 0 127 0" result="hardAlpha"/>
<feOffset dx="4" dy="20"/>
<feGaussianBlur stdDeviation="10"/>
<feComposite in2="hardAlpha" operator="out"/>
<feColorMatrix type="matrix" values="0 0 0 0 0 0 0 0 0 0 0 0 0 0 0 0 0 0 0.3 0"/>
<feBlend mode="normal" in2="BackgroundImageFix" result="effect1_dropShadow_640_2"/>
<feBlend mode="normal" in="SourceGraphic" in2="effect1_dropShadow_640_2" result="shape"/>
</filter>
<clipPath id="clip0_640_2">
<rect width="450" height="450" fill="white" transform="translate(31 49)"/>
</clipPath>
</defs>
</svg>
